HIERARCHY
ROOT Hips
{
    OFFSET 0.000000 0.000000 0.000000
    CHANNELS 6 Xposition Yposition Zposition Zrotation Xrotation Yrotation
    JOINT Spine
    {
        OFFSET -0.000000 14.517291 0.000000
        CHANNELS 3 Zrotation Xrotation Yrotation
        JOINT Spine1
        {
            OFFSET -0.000000 37.558300 0.000000
            CHANNELS 3 Zrotation Xrotation Yrotation
            JOINT Neck
            {
                OFFSET -0.000000 37.404057 3.400369
                CHANNELS 3 Zrotation Xrotation Yrotation
                JOINT Head
                {
                    OFFSET -0.000000 24.785618 -3.540803
                    CHANNELS 3 Zrotation Xrotation Yrotation
                    End Site
                    {
                        OFFSET -0.000000 35.408028 0.000000
                    }
                }
            }
            JOINT LeftShoulder
            {
                OFFSET 6.992933 33.973492 -0.192664
                CHANNELS 3 Zrotation Xrotation Yrotation
                JOINT LeftArm
                {
                    OFFSET 21.527611 0.000000 0.000000
                    CHANNELS 3 Zrotation Xrotation Yrotation
                    JOINT LeftForeArm
                    {
                        OFFSET 56.353916 0.000000 0.000000
                        CHANNELS 3 Zrotation Xrotation Yrotation
                        JOINT LeftHand
                        {
                            OFFSET 47.774071 0.000000 0.000000
                            CHANNELS 3 Zrotation Xrotation Yrotation
                            End Site
                            {
                                OFFSET 26.556021 0.000000 0.000000
                            }
                        }
                    }
                }
            }
            JOINT RightShoulder
            {
                OFFSET -7.065357 33.973492 -0.192664
                CHANNELS 3 Zrotation Xrotation Yrotation
                JOINT RightArm
                {
                    OFFSET -21.527611 0.000000 0.000000
                    CHANNELS 3 Zrotation Xrotation Yrotation
                    JOINT RightForeArm
                    {
                        OFFSET -56.353916 0.000000 0.000000
                        CHANNELS 3 Zrotation Xrotation Yrotation
                        JOINT RightHand
                        {
                            OFFSET -47.774071 0.000000 0.000000
                            CHANNELS 3 Zrotation Xrotation Yrotation
                            End Site
                            {
                                OFFSET -26.556021 0.000000 0.000000
                            }
                        }
                    }
                }
            }
        }
    }
    JOINT LeftUpLeg
    {
        OFFSET 17.704014 0.000000 0.000000
        CHANNELS 3 Zrotation Xrotation Yrotation
        JOINT LeftLeg
        {
            OFFSET -0.000000 -81.181816 0.000000
            CHANNELS 3 Zrotation Xrotation Yrotation
            JOINT LeftFoot
            {
                OFFSET -0.000000 -62.821102 0.000000
                CHANNELS 3 Zrotation Xrotation Yrotation
                JOINT LeftToeBase
                {
                    OFFSET -0.000000 -11.507608 26.556021
                    CHANNELS 3 Zrotation Xrotation Yrotation
                    End Site
                    {
                        OFFSET -0.000000 0.000000 7.081605
                    }
                }
            }
        }
    }
    JOINT RightUpLeg
    {
        OFFSET -17.704014 0.000000 0.000000
        CHANNELS 3 Zrotation Xrotation Yrotation
        JOINT RightLeg
        {
            OFFSET -0.000000 -81.181816 0.000000
            CHANNELS 3 Zrotation Xrotation Yrotation
            JOINT RightFoot
            {
                OFFSET -0.000000 -62.821102 0.000000
                CHANNELS 3 Zrotation Xrotation Yrotation
                JOINT RightToeBase
                {
                    OFFSET -0.000000 -11.507608 26.556021
                    CHANNELS 3 Zrotation Xrotation Yrotation
                    End Site
                    {
                        OFFSET -0.000000 0.000000 7.081605
                    }
                }
            }
        }
    }
}
MOTION
Frames:    13
Frame Time:    0.008333
-27.032900    152.912384    -31.695408    -0.044272    2.154197    21.950504    -2.499894    3.393967    8.753198    -2.177206    -0.568881    2.883243    -4.293000    4.932520    -14.609161    16.126358    -8.635362    -11.310085    1.038113    4.435709    -8.030729    -37.048367    14.432826    -56.772099    -2.466116    -30.561626    -123.328133    -7.274404    -33.813202    -11.489636    0.533971    11.159407    1.302723    37.936066    11.632864    57.153648    -42.527721    -34.194572    28.349112    16.103304    -19.827084    33.565170    -1.541038    -33.041306    -28.950268    -11.174931    23.144846    -24.209023    -9.554190    0.074758    32.567085    0.000000    0.000000    0.000000    2.425991    8.371877    -23.429144    2.702615    23.933683    -5.488085    1.583277    -29.668467    -10.147011    0.000000    0.000000    0.000000    
-27.033020    152.902206    -31.698740    -0.035532    2.148751    21.959761    -2.504618    3.391936    8.751682    -2.169124    -0.564290    2.882851    -4.286861    4.920102    -14.610512    16.117786    -8.623536    -11.315126    1.032394    4.432100    -8.031549    -37.046505    14.431882    -56.768852    -2.469291    -30.568163    -123.326736    -7.249881    -33.826847    -11.483741    0.539615    11.160923    1.296071    37.942104    11.668455    57.158813    -42.404976    -34.108143    28.269592    16.097393    -19.800566    33.530865    -1.553200    -33.038395    -28.945150    -11.171959    23.154346    -24.214191    -9.524978    0.077510    32.548981    0.000000    0.000000    0.000000    2.418869    8.375949    -23.450930    2.695760    23.950426    -5.485831    1.596859    -29.695377    -10.135300    0.000000    0.000000    0.000000    
-27.035761    152.893646    -31.699821    -0.024703    2.144172    21.969687    -2.521788    3.383812    8.742547    -2.144485    -0.557273    2.879941    -4.297616    4.917925    -14.607960    16.119678    -8.618856    -11.311471    1.020126    4.433246    -8.025331    -37.043346    14.431454    -56.765682    -2.462512    -30.582561    -123.316826    -7.257021    -33.828663    -11.488623    0.537326    11.171470    1.300244    37.960236    11.685167    57.172588    -42.252403    -34.026295    28.191811    16.087555    -19.780630    33.545643    -1.563164    -33.033562    -28.927109    -11.175632    23.157709    -24.205231    -9.521096    0.085282    32.530567    0.000000    0.000000    0.000000    2.410451    8.382373    -23.460054    2.698598    23.960018    -5.476267    1.575444    -29.714195    -10.145785    0.000000    0.000000    0.000000    
-27.037235    152.887009    -31.699217    -0.018406    2.130629    21.972982    -2.530451    3.388327    8.741806    -2.127272    -0.558816    2.879627    -4.291073    4.927233    -14.608063    16.113926    -8.630836    -11.312230    1.009671    4.432804    -8.028049    -37.049770    14.431971    -56.757671    -2.462181    -30.577990    -123.314384    -7.241150    -33.824814    -11.489619    0.540129    11.179758    1.298546    37.959286    11.735123    57.177860    -42.115974    -34.032341    28.130434    16.130400    -19.834230    33.559589    -1.561239    -33.018322    -28.916998    -11.173882    23.156923    -24.180590    -9.511794    0.084451    32.483829    0.000000    0.000000    0.000000    2.411088    8.395889    -23.474396    2.697834    23.965918    -5.490812    1.567399    -29.722483    -10.133698    0.000000    0.000000    0.000000    
-27.039373    152.882660    -31.699640    -0.015401    2.128150    21.986919    -2.543287    3.370492    8.734035    -2.103752    -0.544145    2.877425    -4.295200    4.921366    -14.612296    16.118654    -8.624427    -11.315861    1.004755    4.435804    -8.035345    -37.049164    14.441961    -56.756878    -2.455204    -30.588263    -123.313828    -7.207522    -33.827995    -11.465221    0.554752    11.184926    1.298598    37.938641    11.786788    57.181087    -42.017742    -34.012012    28.052561    16.164253    -19.860886    33.542160    -1.568781    -33.021908    -28.905954    -11.171178    23.168755    -24.201853    -9.509245    0.085878    32.473640    0.000000    0.000000    0.000000    2.411674    8.399390    -23.484512    2.696575    23.968859    -5.493859    1.577835    -29.735144    -10.124994    0.000000    0.000000    0.000000    
-27.042803    152.877274    -31.700779    -0.014673    2.120018    21.997965    -2.544065    3.364290    8.729144    -2.094048    -0.533980    2.876061    -4.286932    4.932060    -14.618842    16.116362    -8.646486    -11.321487    1.001931    4.430032    -8.047295    -37.043507    14.466633    -56.749599    -2.438941    -30.610168    -123.311081    -7.220896    -33.821823    -11.477787    0.560131    11.189802    1.302827    37.946648    11.830502    57.174915    -41.915836    -33.999355    28.002573    16.207767    -19.892832    33.460903    -1.570745    -33.021645    -28.906229    -11.177554    23.178806    -24.201342    -9.511587    0.081795    32.471298    0.000000    0.000000    0.000000    2.416435    8.403424    -23.494839    2.693079    23.979935    -5.478364    1.575301    -29.750113    -10.138711    0.000000    0.000000    0.000000    
-27.046722    152.872894    -31.702011    -0.019437    2.111819    22.007114    -2.542471    3.353463    8.726941    -2.083421    -0.520006    2.875732    -4.282191    4.924122    -14.624922    16.122171    -8.643548    -11.327218    1.008807    4.441343    -8.051911    -37.051342    14.471989    -56.757092    -2.438462    -30.598864    -123.314247    -7.240934    -33.808414    -11.484031    0.571542    11.204037    1.298748    37.952168    11.875240    57.177193    -41.834129    -34.005272    27.957510    16.275921    -19.912514    33.507820    -1.566201    -33.025658    -28.903828    -11.182961    23.191895    -24.213991    -9.507349    0.079451    32.472214    0.000000    0.000000    0.000000    2.426777    8.403334    -23.494020    2.694971    23.990620    -5.493990    1.558702    -29.747519    -10.141703    0.000000    0.000000    0.000000    
-27.045382    152.869492    -31.703281    -0.018799    2.110722    22.013687    -2.543562    3.335328    8.726161    -2.078196    -0.502958    2.875914    -4.280888    4.937979    -14.633309    16.145500    -8.671512    -11.327806    1.012134    4.448765    -8.053092    -37.050442    14.485793    -56.762657    -2.436991    -30.582024    -123.320877    -7.252898    -33.789436    -11.485065    0.582445    11.219793    1.294267    37.952972    11.931167    57.171520    -41.786137    -33.996933    27.913876    16.319952    -19.915913    33.535824    -1.572474    -33.031635    -28.918259    -11.184999    23.203747    -24.224333    -9.514261    0.067981    32.483295    0.000000    0.000000    0.000000    2.427003    8.400932    -23.481539    2.696711    23.998867    -5.495513    1.574493    -29.760649    -10.146045    0.000000    0.000000    0.000000    
-27.045652    152.866837    -31.706226    -0.020535    2.103003    22.016176    -2.540173    3.327837    8.730253    -2.071811    -0.487706    2.877660    -4.282716    4.934940    -14.649366    16.160378    -8.678085    -11.340228    1.012721    4.445487    -8.054787    -37.052315    14.513203    -56.764492    -2.434887    -30.567528    -123.327209    -7.260641    -33.771732    -11.490498    0.587298    11.237033    1.290096    37.938831    12.009784    57.171783    -41.797062    -33.999432    27.840914    16.388767    -19.924213    33.533791    -1.569620    -33.032684    -28.926941    -11.195865    23.213409    -24.224247    -9.510431    0.071935    32.495785    0.000000    0.000000    0.000000    2.429971    8.399867    -23.470182    2.706487    24.012331    -5.516614    1.566658    -29.763321    -10.150819    0.000000    0.000000    0.000000    
-27.043205    152.860840    -31.707376    -0.020759    2.098665    22.017094    -2.541386    3.315051    8.735860    -2.061564    -0.469815    2.879989    -4.291920    4.926268    -14.664405    16.184990    -8.676298    -11.349624    1.014237    4.446602    -8.056133    -37.051178    14.539135    -56.769302    -2.433646    -30.549011    -123.337669    -7.266678    -33.752388    -11.492010    0.586419    11.260215    1.276154    37.964493    12.038965    57.171349    -41.729404    -33.976742    27.853060    16.407076    -19.909597    33.514397    -1.568181    -33.032928    -28.923666    -11.192513    23.226002    -24.238386    -9.512273    0.051610    32.489403    0.000000    0.000000    0.000000    2.432096    8.397006    -23.468328    2.702571    24.026031    -5.513381    1.551901    -29.775167    -10.164814    0.000000    0.000000    0.000000    
-27.043575    152.856628    -31.714010    -0.024463    2.098338    22.016171    -2.542360    3.308107    8.741014    -2.052616    -0.465741    2.881873    -4.294391    4.918398    -14.671964    16.199123    -8.676929    -11.353848    1.015512    4.445793    -8.052714    -37.056858    14.562398    -56.765934    -2.434335    -30.513931    -123.343536    -7.303414    -33.715256    -11.522991    0.588566    11.275313    1.267067    37.975124    12.085562    57.163666    -41.704510    -33.963840    27.852341    16.455090    -19.891731    33.489799    -1.568164    -33.040672    -28.917992    -11.188636    23.240671    -24.253422    -9.523916    0.037007    32.500805    0.000000    0.000000    0.000000    2.434240    8.388235    -23.450159    2.708738    24.038773    -5.544426    1.552493    -29.783903    -10.152678    0.000000    0.000000    0.000000    
-27.040731    152.851929    -31.718735    -0.018473    2.095257    22.013603    -2.539044    3.303763    8.745787    -2.063703    -0.451216    2.883746    -4.277752    4.918278    -14.681890    16.197418    -8.700693    -11.363112    1.024269    4.440448    -8.050921    -37.059002    14.585862    -56.758862    -2.442140    -30.482626    -123.360718    -7.331773    -33.695316    -11.538174    0.602994    11.294240    1.251394    38.002060    12.104895    57.166367    -41.658890    -33.931034    27.868994    16.482655    -19.849478    33.509884    -1.573509    -33.038197    -28.906397    -11.189157    23.243662    -24.242285    -9.511257    0.037014    32.485043    0.000000    0.000000    0.000000    2.428166    8.391335    -23.439545    2.712000    24.042168    -5.553813    1.536550    -29.794792    -10.152231    0.000000    0.000000    0.000000    
-27.035450    152.845078    -31.722450    -0.010444    2.088306    22.006975    -2.549006    3.305019    8.751761    -2.051977    -0.446025    2.885750    -4.284729    4.904099    -14.684928    16.209755    -8.692772    -11.363444    1.018529    4.435561    -8.054484    -37.081291    14.590669    -56.728592    -2.475590    -30.403193    -123.393982    -7.332943    -33.672413    -11.548206    0.608545    11.296247    1.239306    38.016239    12.155506    57.158287    -41.632595    -33.920853    27.877489    16.523132    -19.832197    33.495369    -1.577523    -33.029694    -28.908827    -11.190244    23.240892    -24.221996    -9.507813    0.036583    32.473377    0.000000    0.000000    0.000000    2.417880    8.396461    -23.435114    2.710599    24.057728    -5.547662    1.546520    -29.816597    -10.141027    0.000000    0.000000    0.000000    
